<svg xmlns="http://www.w3.org/2000/svg" xmlns:xlink="http://www.w3.org/1999/xlink" width="251.027" height="91.291" viewBox="0 0 251.027 91.291">
  <defs>
    <clipPath id="clip-path">
      <rect id="Rectangle_61" data-name="Rectangle 61" width="87.477" height="85.291" fill="none"/>
    </clipPath>
  </defs>
  <g id="Group_34" data-name="Group 34" transform="translate(-834.486 -5000)">
    <g id="Group_29" data-name="Group 29" transform="translate(916.261 5003)">
      <g id="Group_28" data-name="Group 28" clip-path="url(#clip-path)">
        <path id="Path_33" data-name="Path 33" d="M15.491,0h56.5A15.491,15.491,0,0,1,87.478,15.491V69.8A15.491,15.491,0,0,1,71.987,85.291h-56.5A15.491,15.491,0,0,1,0,69.8V15.491A15.491,15.491,0,0,1,15.491,0" fill="#001925"/>
        <path id="Path_34" data-name="Path 34" d="M49.019,92.151v-37.5c0-.273.117-.411.352-.411.625,0,1.2-.009,2.057-.029s1.789-.039,2.788-.059l3.169-.059q1.673-.029,3.316-.029a22.046,22.046,0,0,1,7.511,1.115,13.036,13.036,0,0,1,4.9,2.993,11.482,11.482,0,0,1,2.67,4.137,13.729,13.729,0,0,1,.822,4.724,13.037,13.037,0,0,1-2.171,7.746,12.27,12.27,0,0,1-5.868,4.431,23.383,23.383,0,0,1-8.216,1.232q-1.292,0-1.819-.029t-1.584-.03V92.093a.467.467,0,0,1-.528.528H49.43c-.274,0-.411-.156-.411-.469m7.925-30.867v12.23q.762.059,1.408.059h1.936a13.765,13.765,0,0,0,4.2-.67,6.324,6.324,0,0,0,2.993-1.936,5.63,5.63,0,0,0,1.144-3.756,5.933,5.933,0,0,0-.851-3.228A5.475,5.475,0,0,0,65.219,61.9a10.881,10.881,0,0,0-4.284-.733q-1.409,0-2.494.029T56.944,61.284Z" transform="translate(-29.321 -32.34)" fill="#002733"/>
        <path id="Path_35" data-name="Path 35" d="M146,84.7a13.73,13.73,0,0,0-3.492-1.232A18.53,18.53,0,0,0,138.427,83a7.589,7.589,0,0,0-2.2.264,1.98,1.98,0,0,0-1.144.733,1.85,1.85,0,0,0-.293,1,1.561,1.561,0,0,0,.352.939,4,4,0,0,0,1.232.968,24.605,24.605,0,0,0,2.582,1.2,25.607,25.607,0,0,1,5.6,2.67,8.528,8.528,0,0,1,2.876,3.022,8.058,8.058,0,0,1,.851,3.756,8.434,8.434,0,0,1-1.408,4.841,9.266,9.266,0,0,1-4.079,3.257,16.415,16.415,0,0,1-6.6,1.174,23.859,23.859,0,0,1-4.959-.469,15.821,15.821,0,0,1-3.726-1.174.76.76,0,0,1-.411-.7V98.138a.345.345,0,0,1,.147-.323.285.285,0,0,1,.323.029,15.676,15.676,0,0,0,4.518,1.79,18.628,18.628,0,0,0,4.284.557,6.582,6.582,0,0,0,3.022-.528,1.66,1.66,0,0,0,.968-1.526,1.942,1.942,0,0,0-.88-1.467,14.537,14.537,0,0,0-3.58-1.7,21.576,21.576,0,0,1-5.194-2.641,8.954,8.954,0,0,1-2.758-3.081,8.1,8.1,0,0,1-.851-3.727,8.414,8.414,0,0,1,1.232-4.4,8.953,8.953,0,0,1,3.815-3.345,14.383,14.383,0,0,1,6.455-1.291,28.581,28.581,0,0,1,4.518.323,11.853,11.853,0,0,1,3.146.851.534.534,0,0,1,.352.323,1.627,1.627,0,0,1,.059.44v5.927a.4.4,0,0,1-.176.352.567.567,0,0,1-.505,0" transform="translate(-76.025 -45.749)" fill="#002733"/>
      </g>
    </g>
    <g id="Group_32" data-name="Group 32" transform="translate(-0.261 2684.291)">
      <path id="Path_36" data-name="Path 36" d="M66,0A19,19,0,0,1,85,19V66A19,19,0,0,1,66,85" transform="translate(950 2319)" fill="none" stroke="#001925" stroke-linecap="round" stroke-width="6"/>
      <path id="Path_38" data-name="Path 38" d="M66,0A13.256,13.256,0,0,1,79.256,13.256V46.048A13.256,13.256,0,0,1,66,59.3" transform="translate(981.26 2331.848)" fill="none" stroke="#001925" stroke-linecap="round" stroke-width="6"/>
      <path id="Path_39" data-name="Path 39" d="M66,0a6.74,6.74,0,0,1,6.74,6.74V23.411A6.74,6.74,0,0,1,66,30.15" transform="translate(1010.035 2346.425)" fill="none" stroke="#001925" stroke-linecap="round" stroke-width="6"/>
    </g>
    <g id="Group_33" data-name="Group 33" transform="translate(837.486 5003)">
      <path id="Path_36-2" data-name="Path 36" d="M85,0A19,19,0,0,0,66,19V66A19,19,0,0,0,85,85" transform="translate(-18.225)" fill="none" stroke="#001925" stroke-linecap="round" stroke-width="6"/>
      <path id="Path_38-2" data-name="Path 38" d="M79.256,0A13.256,13.256,0,0,0,66,13.256V46.048A13.256,13.256,0,0,0,79.256,59.3" transform="translate(-43.742 12.848)" fill="none" stroke="#001925" stroke-linecap="round" stroke-width="6"/>
      <path id="Path_39-2" data-name="Path 39" d="M72.74,0A6.74,6.74,0,0,0,66,6.74V23.411a6.74,6.74,0,0,0,6.74,6.74" transform="translate(-66 27.425)" fill="none" stroke="#001925" stroke-linecap="round" stroke-width="6"/>
    </g>
  </g>
</svg>
