<svg xmlns="http://www.w3.org/2000/svg" xmlns:xlink="http://www.w3.org/1999/xlink" width="251.55" height="91" viewBox="0 0 251.55 91">
  <defs>
    <clipPath id="clip-path">
      <rect id="Rectangle_60" data-name="Rectangle 60" width="87.479" height="85.291" fill="none"/>
    </clipPath>
  </defs>
  <g id="Group_36" data-name="Group 36" transform="translate(-834.225 -2316)">
    <g id="Group_27" data-name="Group 27" transform="translate(916.26 2319)">
      <g id="Group_26" data-name="Group 26" clip-path="url(#clip-path)">
        <path id="Path_30" data-name="Path 30" d="M18.826,0H68.653A18.826,18.826,0,0,1,87.479,18.826V66.465A18.826,18.826,0,0,1,68.653,85.291H18.826A18.826,18.826,0,0,1,0,66.465V18.826A18.826,18.826,0,0,1,18.826,0" fill="#001925"/>
        <path id="Path_31" data-name="Path 31" d="M66.1,56.895,55.183,74.911,66.862,94.043a.6.6,0,0,1,.058.44c-.039.138-.174.05-.411.089H58.174c-.582,0-1-.021-1.233-.413q-1.175-2.289-2.347-4.549T52.1,85q-1.322-2.348-2.613-4.755h-.058q-1.175,2.348-2.435,4.695T44.5,89.608q-1.233,2.326-2.52,4.608c-.157.353-.43.388-.822.388H33.118c-.155,0-.244.062-.264-.095a.582.582,0,0,1,.089-.411L44.269,75.488,33.234,56.835c-.118-.157-.138-.283-.058-.388a.424.424,0,0,1,.353-.145H41.8a1.212,1.212,0,0,1,.529.087,1.07,1.07,0,0,1,.351.324q1.057,2.348,2.349,4.695t2.611,4.635q1.32,2.289,2.435,4.635h.058q1.163-2.406,2.377-4.695t2.464-4.608q1.262-2.326,2.435-4.606a.916.916,0,0,1,.235-.388.844.844,0,0,1,.469-.087H65.8a.336.336,0,0,1,.407.243h0a.335.335,0,0,1-.114.341Z" transform="translate(-20.113 -34.464)" fill="#002733"/>
        <path id="Path_32" data-name="Path 32" d="M137.85,90.356a18.179,18.179,0,0,1-7.833-1.642,12.45,12.45,0,0,1-5.488-4.96,15.851,15.851,0,0,1-2-8.3,15.314,15.314,0,0,1,2-7.688,14.645,14.645,0,0,1,5.815-5.633,18.752,18.752,0,0,1,9.211-2.115c.194,0,.45.012.764.029s.684.048,1.115.089V48.571c0-.273.116-.411.353-.411h7.393a.312.312,0,0,1,.353.265h0a.275.275,0,0,1,0,.087V83.2q0,1,.089,2.171t.147,2.111a.606.606,0,0,1-.353.582,29.049,29.049,0,0,1-5.928,1.76,31.629,31.629,0,0,1-5.639.529m3.578-7.277V67.058a5.751,5.751,0,0,0-.969-.176,11.748,11.748,0,0,0-1.2-.058,9.067,9.067,0,0,0-4.108.94,7.556,7.556,0,0,0-4.284,7.335,10.352,10.352,0,0,0,.616,3.757,7.175,7.175,0,0,0,1.644,2.582,6.243,6.243,0,0,0,2.464,1.465,9.637,9.637,0,0,0,3.024.471q.82,0,1.526-.06A6.188,6.188,0,0,0,141.429,83.079Z" transform="translate(-75.022 -29.487)" fill="#002733"/>
      </g>
    </g>
    <g id="Group_30" data-name="Group 30">
      <path id="Path_36" data-name="Path 36" d="M66,0A19,19,0,0,1,85,19V66A19,19,0,0,1,66,85" transform="translate(950 2319)" fill="none" stroke="#001925" stroke-linecap="round" stroke-width="6"/>
      <path id="Path_38" data-name="Path 38" d="M66,0A13.256,13.256,0,0,1,79.256,13.256V46.048A13.256,13.256,0,0,1,66,59.3" transform="translate(981.26 2331.848)" fill="none" stroke="#001925" stroke-linecap="round" stroke-width="6"/>
      <path id="Path_39" data-name="Path 39" d="M66,0a6.74,6.74,0,0,1,6.74,6.74V23.411A6.74,6.74,0,0,1,66,30.15" transform="translate(1010.035 2346.425)" fill="none" stroke="#001925" stroke-linecap="round" stroke-width="6"/>
    </g>
    <g id="Group_31" data-name="Group 31" transform="translate(837.225 2319)">
      <path id="Path_36-2" data-name="Path 36" d="M85,0A19,19,0,0,0,66,19V66A19,19,0,0,0,85,85" transform="translate(-18.225)" fill="none" stroke="#001925" stroke-linecap="round" stroke-width="6"/>
      <path id="Path_38-2" data-name="Path 38" d="M79.256,0A13.256,13.256,0,0,0,66,13.256V46.048A13.256,13.256,0,0,0,79.256,59.3" transform="translate(-43.742 12.848)" fill="none" stroke="#001925" stroke-linecap="round" stroke-width="6"/>
      <path id="Path_39-2" data-name="Path 39" d="M72.74,0A6.74,6.74,0,0,0,66,6.74V23.411a6.74,6.74,0,0,0,6.74,6.74" transform="translate(-66 27.425)" fill="none" stroke="#001925" stroke-linecap="round" stroke-width="6"/>
    </g>
  </g>
</svg>
